<mxfile host="app.diagrams.net" modified="2023-09-14T20:34:13.699Z" agent="Mozilla/5.0 (Macintosh; Intel Mac OS X 10_15_7) AppleWebKit/537.36 (KHTML, like Gecko) Chrome/116.0.0.0 Safari/537.36" etag="0kTH7gCAkOmR49_1eox_" version="21.6.8" type="device">
  <diagram name="PÃ¡gina-1" id="khuS2sRucoyYycTc3SZV">
    <mxGraphModel dx="2474" dy="1050" grid="0" gridSize="10" guides="1" tooltips="1" connect="1" arrows="1" fold="1" page="0" pageScale="1" pageWidth="827" pageHeight="1169" math="0" shadow="0">
      <root>
        <mxCell id="0" />
        <mxCell id="1" parent="0" />
        <mxCell id="yAyFMgW1h0PYPkcusyNA-35" value="" style="rounded=0;whiteSpace=wrap;html=1;sketch=1;hachureGap=4;jiggle=2;curveFitting=1;fontFamily=Architects Daughter;fontSource=https%3A%2F%2Ffonts.googleapis.com%2Fcss%3Ffamily%3DArchitects%2BDaughter;fontSize=20;fillColor=#E4E1F7;strokeColor=#56517e;" vertex="1" parent="1">
          <mxGeometry x="-215" y="346" width="631" height="545" as="geometry" />
        </mxCell>
        <mxCell id="yAyFMgW1h0PYPkcusyNA-4" value="" style="shape=image;verticalLabelPosition=bottom;labelBackgroundColor=default;verticalAlign=top;aspect=fixed;imageAspect=0;image=data:image/png,iVBORw0KGgoAAAANSUhEUgAAAEsAAABDCAIAAABbf2/QAAAKp2lDQ1BJQ0MgUHJvZmlsZQAASImVlgdUk8kWx+f70kNCS0A6oTfpLYCUEFoABekgKiEJEEoIgaBiRxZXcEUREQF1RRcpCq5KtSEWbIuCAvYNsgio62LBhuV9wCG4+85777x7zmR+ud+dO/fOmTnnDwCZxBYKU2F5ANIEWaIQX09aVHQMDTcCCAADSMAOUNmcTCEjODgQIDY7/93e9QNoar5tPpXr37//V1Pg8jI5AEDBCMdzMzlpCJ9ExlOOUJQFAKoS8eutyBJOcQfCVBFSIMJ3pjhxhkenOH6GP0/HhIUwAUAjXeFJbLYoEQCSBuKnZXMSkTykBQhbCbh8AcJT9bqlpaVzET6CsDESI0R4Kj89/rs8iX/LGS/NyWYnSnmml2nDe/EzhansVf/ncfxvS0sVz+5hiAxSksgvBJllkTO7m5IeIGVB/KKgWeZzp+OnOUnsFz7LnExmzCxz2V4B0rWpiwJnOYHvw5LmyWKFzTIv0zt0lkXpIdK9EkRMxiyzRXP7ilPCpf4kHkuaPycpLHKWs/kRi2Y5MyU0YC6GKfWLxCHS+nkCX8+5fX2kvadlftcvnyVdm5UU5iftnT1XP0/AmMuZGSWtjcvz8p6LCZfGC7M8pXsJU4Ol8bxUX6k/MztUujYLuZBza4OlZ5jM9g+eZRAMGMAGOAI6YIIIALJ4K7OmmmCmC1eJ+IlJWTQG8rp4NJaAYzGfZmNlYwvA1FuduQpv7k6/QUgZP+fLSEGu8FsAYL05X5wxAG2FACiZzPkMkHtNzgXglIQjFmXP+NBTPxhABHKAClSBFtADxsAcqc8BuAAP4A38QRAIA9FgGeCAJJAGRGAFWAM2gnxQCLaDXaAc7AcHQQ04Co6DFnAanAeXwXVwC/SBB0AChsFzMA7egUkIgnAQGaJAqpA2ZACZQTYQHXKDvKFAKASKhuKgREgAiaE10CaoECqGyqEDUC30K9QGnYeuQj3QPWgQGoNeQ59gFEyCqbAmbAhbwnSYAQfAYfBSOBHOgHPgPHgbXAZXwUfgZvg8fB3ugyXwc3gCBVAyKGWUDsocRUcxUUGoGFQCSoRahypAlaKqUA2odlQX6jZKgnqB+ojGoiloGtoc7YL2Q4ejOegM9Dr0VnQ5ugbdjL6Ivo0eRI+jv2LIGA2MGcYZw8JEYRIxKzD5mFJMNaYJcwnThxnGvMNiscpYI6wj1g8bjU3GrsZuxe7FNmI7sD3YIewEDodTxZnhXHFBODYuC5eP24M7gjuH68UN4z7gZfDaeBu8Dz4GL8Dn4kvxdfiz+F78CH6SIE8wIDgTgghcwipCEeEQoZ1wkzBMmCQqEI2IrsQwYjJxI7GM2EC8RHxIfCMjI6Mr4ySzWIYvs0GmTOaYzBWZQZmPJEWSKYlJiiWJSdtIh0kdpHukN2Qy2ZDsQY4hZ5G3kWvJF8iPyR9kKbIWsixZrux62QrZZtle2ZdyBDkDOYbcMrkcuVK5E3I35V7IE+QN5ZnybPl18hXybfID8hMKFAVrhSCFNIWtCnUKVxVGFXGKhoreilzFPMWDihcUhygoih6FSeFQNlEOUS5RhqlYqhGVRU2mFlKPUrup40qKSnZKEUorlSqUzihJlFHKhsos5VTlIuXjyv3Kn+ZpzmPM483bMq9hXu+89yrqKh4qPJUClUaVPpVPqjRVb9UU1R2qLaqP1NBqpmqL1Vao7VO7pPZCnaruos5RL1A/rn5fA9Yw1QjRWK1xUOOGxoSmlqavplBzj+YFzRdayloeWslaJVpntca0Kdpu2nztEu1z2s9oSjQGLZVWRrtIG9fR0PHTEesc0OnWmdQ10g3XzdVt1H2kR9Sj6yXoleh16o3ra+sv1F+jX69/34BgQDdIMtht0GXw3tDIMNJws2GL4aiRihHLKMeo3uihMdnY3TjDuMr4jgnWhG6SYrLX5JYpbGpvmmRaYXrTDDZzMOOb7TXrmY+Z7zRfML9q/oA5yZxhnm1ebz5ooWwRaJFr0WLx0lLfMsZyh2WX5Vcre6tUq0NWD6wVrf2tc63brV/bmNpwbCps7tiSbX1s19u22r6yM7Pj2e2zu2tPsV9ov9m+0/6Lg6ODyKHBYcxR3zHOsdJxgE6lB9O30q84YZw8ndY7nXb66OzgnOV83PkvF3OXFJc6l9EFRgt4Cw4tGHLVdWW7HnCVuNHc4tx+dpO467iz3avcn3joeXA9qj1GGCaMZMYRxktPK0+RZ5Pne6Yzcy2zwwvl5etV4NXtregd7l3u/dhH1yfRp95n3Nfed7Vvhx/GL8Bvh98AS5PFYdWyxv0d/df6XwwgBYQGlAc8CTQNFAW2L4QX+i/cufDhIoNFgkUtQSCIFbQz6FGwUXBG8KnF2MXBiysWPw2xDlkT0hVKCV0eWhf6LswzrCjsQbhxuDi8M0IuIjaiNuJ9pFdkcaQkyjJqbdT1aLVofnRrDC4mIqY6ZmKJ95JdS4Zj7WPzY/uXGi1dufTqMrVlqcvOLJdbzl5+Ig4TFxlXF/eZHcSuYk/Es+Ir48c5TM5uznOuB7eEO8Zz5RXzRhJcE4oTRhNdE3cmjiW5J5UmveAz+eX8V8l+yfuT36cEpRxO+ZYamdqYhk+LS2sTKApSBBfTtdJXpvcIzYT5QkmGc8aujHFRgKg6E8pcmtmaRUVE0Q2xsfgH8WC2W3ZF9ocVEStOrFRYKVh5Y5Xpqi2rRnJ8cn5ZjV7NWd25RmfNxjWDaxlrD6yD1sWv61yvtz5v/fAG3w01G4kbUzb+lmuVW5z7dlPkpvY8zbwNeUM/+P5Qny+bL8of2Oyyef+P6B/5P3Zvsd2yZ8vXAm7BtUKrwtLCz1s5W6/9ZP1T2U/ftiVs6y5yKNq3HbtdsL1/h/uOmmKF4pzioZ0LdzaX0EoKSt7uWr7raqld6f7dxN3i3ZKywLLWPfp7tu/5XJ5U3lfhWdFYqVG5pfL9Xu7e3n0e+xr2a+4v3P/pZ/7Pdw/4HmiuMqwqPYg9mH3w6aGIQ12/0H+prVarLqz+clhwWFITUnOx1rG2tk6jrqgerhfXjx2JPXLrqNfR1gbzhgONyo2Fx8Ax8bFnv8b92n884HjnCfqJhpMGJyubKE0FzVDzqubxlqQWSWt0a0+bf1tnu0t70ymLU4dP65yuOKN0pugs8Wze2W/ncs5NdAg7XpxPPD/UubzzwYWoC3cuLr7YfSng0pXLPpcvdDG6zl1xvXL6qvPVtmv0ay3XHa4337C/0fSb/W9N3Q7dzTcdb7becrrV3rOg52yve+/52163L99h3bnet6ivpz+8/+5A7IDkLvfu6L3Ue6/uZ9+ffLDhIeZhwSP5R6WPNR5X/W7ye6PEQXJm0GvwxpPQJw+GOEPP/8j84/Nw3lPy09IR7ZHaUZvR02M+Y7eeLXk2/Fz4fPJF/p8Kf1a+NH558i+Pv26MR40PvxK9+vZ66xvVN4ff2r3tnAieePwu7d3k+4IPqh9qPtI/dn2K/DQyueIz7nPZF5Mv7V8Dvj78lvbtm5AtYk9LARQy4IQEAF4fRnRCNACUWwAQl8xo6WmDZvT/NIH/xDN6e9ocAKjuACBsAwCBHgDsm5KyCJOREYz8D/MAsK2tdMzq3mmNPmXYEwAYpSHKAXq4y0UI/mEz+v27uv85A2nWv83/Ao1HAePKfCU8AAAAOGVYSWZNTQAqAAAACAABh2kABAAAAAEAAAAaAAAAAAACoAIABAAAAAEAAABLoAMABAAAAAEAAABDAAAAAJezDkAAABdqSURBVGgFvdoF0FbVFgbgSyhiYWB3d3d367XFQowRW3FsHWNGhFHHscbu7m5sBRS7sLvF7rrqfc7/cjefv1/w48Uz43GfffZee71rvSvO99Ppjz/++NfYvMjv1KlT7Qk50eTvv//euXPnLCjLfvvtty5duljvrbsFtXvHYPx397c8sh086824Au8/bVcm3T0F3s8//wxb4FnpanlQowWdYtFGr8fqPL2dDpJBwOS4uPHXX3/t2rUrW/xNHf4hhLHjX9UFBrYPPvjgs88+++6770CaZJJJZphhhm7duhlzqXsh8JhB7Tpm2/4vu6j+448/Xnrppffff/9XX3015ZRT8mf37t0nm2yyZZZZZqWVVppwwgn/Jjx6/nM+LA6kdPT+4YcfdtppJyG3/fbbL7bYYnz44IMPLrXUUu+88w7Ys8wyy8CBA6kIdtaPoVnbjhu7typRtIVcjsFM9Pv000/XWWedvn37wunR/YwzznjggQeEn0dQV1111S233PLrr7/+5ZdfbBljFcd6Lq1reIAvvPDCmWeeuX///uOOO+4333xz+eWXTz755EsuuaTAe/XVV90vvvji8ccf/9BDD2WL2jxUV2CTyYYIKRHL2Wxc7hmwqAFju+fKjHHclUFe4acrQsxQ9+WXX37++ef33nvvSSed9IsvvrjvvvuE32qrrTbeeOO99NJL77333vzzzz/ddNMdffTRTz311CWXXJKDckQ5KMJb3hsipEcCoEgshjSIxkl0MYQZdHJehaYtxZv3GGCE2OWeCwlnn312kebtkCFD3DfbbDNZ9KOPPnr33XdXXnnliSee+MMPP+TG9ddff/jw4W+//XZBQjgh5bHloCHC6Gc/iZTz6KJKpDNqAHvLEO5e4Zs1xmLJNc4447gHWPSw11tjDlxwwQUteOSRRz7//HMhRwiu8u2KK65IzmuvvXb33XfPO++8u+++O/Y++eSTMU2Rk8Ho3BsidGTBQ5BHV1CZ5z2T8Pz0008ZRPUcSXWXt+5mAsxjtnO1IjH33HM/9NBDkKy33nowMNkzzzwz11xzIeoLL7zAaVNMMcVaa63Fsausssott9wS20V+ziKWJplpcm9RD6Ei2j2KGsP25ZdfXnXVVcxPUfMLLbSQXC+KAAhvTfIeV9CANgFWTACMwoCQb775pnSqDBI7dOhQVV7sEWulmRVWWIGBHAHzo48+ysPqZJAUUZGcyUb3hj60IYIiha4uACi3ySab7LXXXvfcc88EE0yw7LLLUrRfv35qNF4pbnaBFyfby9JE0diYhPhTenzjjTfE2FRTTWX9K6+8oq1ZfPHFn3766eCXaQCzxTI0nnPOOUVjOwwFZ7v5do8tfBiFsocnP/nkk+22286pBxxwgDItm7/44ouqFjzXXXfd6aefLmD23HNPeQKkWCR6GNtOGqV5g5zpp5+eT2z8+OOP33rrLZkGbHnVzIwzzjj11FNbb16F3GCDDSTYu+66C2y5t1aldmDqPrb2oW3xgKKsavHYySeffMghh4gQKZF1p5lmGgfLFjBbc/DBB2vBEIyuNhbrGIDnzl3cgqUw8BgHyjqc/9xzz6kZPXr0INNKB8mlQpEtkEXKhZ+lal3nMfKb3JshtC3iohlj33vvvYcddthGG20kPBQxAxnfshEjRjzxxBOCCnJpY5999nn//ffjNxJioEiDBP1oLG3KUlyEqDwml2i4HQQt2PDfdNNNwmGOOebgNDkJzplmmimaEBWO1KI1WfdqhtBJ2UOcYxiVgQUPmg0bNkwq1xlbA95tt91m3hozUo5MiL20iY2LHhZIJ9NOO23Pnj1R/YYbboBKUlXW9TcKoIxlDSsIaYG9wAILOFrAcy/zkeMtmS7+J79Irostk80QoplFzsgAqrXXXpuKyMmiMrvzvv32Wxr4DuAWl6Rnhg+pCDlVSKBKNCPKIzNxlGykVASYKo/eyy23HG5j+B133CHkoGU+Xfipp56KvdqAQMq9DWZrilan+6/JFZ0s4Df1it8efvhhdxUC2ZgQEomBWxxJY0ElIGVF33vff/890wQkCRZ7BMxYdMlGgwcPxlUXpdUG1cUWAsFeeOGFoZW3BQX+M5loJwFmxorrYrgmyudVQ4QERS18MHAM5eRApErsmZQJ6OR7Bzkh8ZnHD5ArcfRTuBmoyClq0UwRt93A15NldqGGx8ceeww2l0NxYdNNN+XPPfbYY+edd44cNipySChxZNzoaoiQoAjNTnEv6MUPW+aYQYMGUWLrrbe2jIfPP/98tp9tttl474orrpCWJBtC6FqIYGXsJbUoofRTDwShwGMghJSTSWBKqaV3795Srgq077772gW/ZSSQZqP1xuzYCFiZ/xOMMlsGBBENyRJLLOFbTqEn1AFcqgRvtdVWIsTB8DtPTZMDb731VklPWqIKdhHlVQxvI+tkhmSp5ZRTTuElDRpuWzbPPPNgJqKSibdrrLGGykGOtCQnIXZRzMB87FU7+ddxw4oftcAzoMrrr7+un/RIBGOjluSGWh5vvvlmXOVMhpCEOBkJFT1upKjoAi+WCjxb4ltKH3HEEczEWJo1+UYSZkGNxI477giz48gZMGDA7bffTuaBBx4oQKAih1ajA68CbGmTi5281UzxFVV8cQvF448/XkbJrscff/ykk07CTPivvvrqG2+8kROMTYouWUTRIyS8cvfIHIQ8++yzOhX5NnJsQU6GMCNpm2QdBFYSMYIhxL8YwVh2jFakZRAJje4NfRjwjG2nbKkug6c/piI2CjnSATCjEuq/5FiqJ2dwuBLC6jgWCYQYAGZeOtG7kyPqaMkt+rJFF100J2oYYJO0rr/+eiYTlqi+6667brPNNvpBk84CG59H04ddjjrqKKLrXlEOVTiQ0yR3OOU3eYLGuOoLY8MNN6SiOkH1vPIbhKqomjOEuhfJhPDM4Ycfzi6WKSdIjtiyl2p+9tln+6oABjYZCy15WEKGigM333xzHSLqqpnkAK+1QmZ2FyaUrKv8qMlGzkWb8gp/nK3J8DuKmDQvPI499lg/NxjzxnHHHSeKjMGWdXAJbKpjXRbQWwXX+si6eOiHCQ7nQN2fIJRXZRF6EzjffPNp4jkZ20H1rUwIBbR1Eqz1xjALxRNPPJHwllezOKwFaXznnXc6ns/lSS5iZrDNKxtoCadotMZPTEyeH9G8BQkeJATAGgXgrLPOklFo5lFONgaGu9RVkenbRTALNnf2YgW2MCYZNo9MqQ4vvfTSEpVz4c/VCGozhPaQaH82UwgV11xzTdr7lqG9V5IQLS3wiJwSDPJo7sxnl1jifAWAKB8HlBO6XtFb4tW+ZhmHs4IO5tprr8V8sQqtV4Kf9zifNR0n8vOjo2Suaz333HMDL/eIandvmGmsQ3G8d7ffAOllcDFJaUjEnl6RFUWUxc72VYVyvXr12m233RhYJCiPyLzuuuvyjwjkbewFGFp5Uhn0e5R58uFhuAQ2eBYIS3cC2YJZ5RWhoXOcddZZ5TNbiOLkUfHWYNQCIUFEYxpr4dIOO+xAP9/1aEN1cUL7pBYBw6hyhixCM3HiziEihwkmmmgiNOOHRRZZhCbyFibLtITjHkaQ6SzVn9P0vcgslwgH3GYvWVcexhGJFD+ZW0SIZwm8Aa5R0xXCuMtJhBqbifcohEU+PfFKCyb6lW+52zfEv9suxZDrOBOAI488UgLwijlwkjl8PWoGNEPadDM8sMUWW1jAFjyvlgSeHCthwsAosDmOpTQx4hM/5Vv1g69o4hSikChfqrZbJv34sqEzA6EDIQZMUCCOfPYOPLMM77XNxmLJj7a66l122UUWhVMUiTefuelmOAT9rGRRKrKI0DrvvPOY1uePtotRdF4ClU/gJ4pFtC9++JD92TTBprp6lKWJJR/DbRHPVMdJCVZ2oaHaw/PSAQYZk+9HE07mVRup7bKM8vFZQFZh5qRAshlO4xQDTQzVTzjhBKElm9MPMwUJomqjqMKl8Tny4CpD+AiQZn0NCDDwqE6CxAiebw5i/TLge8IpjK3t5k8Jxiu1Tr3lQyrqXRhX1fWIiuDhhS9SNZNu/mij8Cy//PKMCBhXUxuYaFI4GHju1cdIyGlggwO4Ub5SwUSdH2RVeZSjd0jouwEANUPVEnKswz8MKbmxOonnnHOOnoOf0Q8GpKINzVgEC/wCQAmTNEtTZgwDCeRfdtllzgIePJ6kEgm+icHDTxvxlj6Y7yBhTIIAxuG0FhbY61UtUasfizwDmfRAFTPI7RMePGYDQAzIKMLAz2Fiz29NGg6ZA2k5lh5CRYxx1+qrr66VcYx5C1DX8eZ5ScanqCaGBmZEr5+3zcPg2njjjelHY1yNMlKUmDRJB4ywixGFsUSKjbwqx+K2ZbQCgRru9K+FZ1dXU65a9Pagkwj0lYA85FKLUUn0w5HAQB7zbAwPYJxAJwWNK9QP8PDTmMz0MZgZjglaytGAM8kkn0x5ldKEwCyuzGOpZToKZ0kqUgBgqMgQ6BBUcowtQhGfsQM8V4RDVXtVOSfFtMzK+PpaSYxX5XFVy48UDmBRJvcBThBjg8QKihJFWZFycqCsaBd3MQGFKAePjOp4Y7ZzChrzrSM8yhngUdqCNAB9+vSRaRkdC1AJd7yl4ZVXXsnnfuMh0AL6sJeELA8xE2uSXKFsu/IYRJ0pJPxItNMLhNTv4afU4kjmRFe8VXnlEvBI0Nkwbc4WhyJKkuAuF/Io66RxLwCQIJgFnGxSZtI3a/3YnlrkUxESqjiXZQUbvzGllRbIW9RjLOGn2QDP6TRBMfnJLgFpEmuK94LQPfDcq780kFKN2toXphLrNKOfmKYKzWQ8BU3ex1VxyBAaDsSzS9igMcYyMEvjDIpK39Cyi+99XKCidofG8jA8mGYGBQgRz4SoGQcddBAF9GuJW461DDnppnJIKphCb0xBDcmcV7iR0XHVRiq5BwiBtVf1DkhTFNJPAECupGIn1nGRiKIZqJzpLVc7iTMxVpZje6IxMH4GWHKznVH4zd2fljTT3KXRUzakeCt1c7SB0BpZVHJmUBjUJ58mnMx7rGyNcGA4qZKSyMl8sjF41GB0BhImUpFHYgPEuBZhVS284ygDZtYcQ8gnpFhnRoFWBpCe8RzA/JoV661EOSHKLeohqCyKY9orfRYiWSMHOFXloAqEJOOVjeo+Q8jS2jrzlsleWGqg0vKewot+xMo3GCGS6a02sogUzXvCj7fpaYZYZ0ERYCweRHkc+ZM7a1GFlrK21EJ1j0wOHl2RxzaTHEszkMQbmvGVg/lTpOmJ1QyLL7roIrbA4SDnQDFJvorqr9ZUwUBHMLw+W81EOfwX+WIPiWDGGr9ZUMAjMGzKjdSNSiBhFuGAaXHEOesjlAX4WDwZeNWujBxsgDxQ+fYhxVKclMGVb+IkPSBlAqgcKfYMuAtgd9FvvQBme2rptnwN6A20BNdccw0HopkfO8jx9chSNENR2cLKbbfdVgZ2utZXOHCdJAet1MKH5qObQRjBWN56dBnTysArk2jICoxu4Gpb0oabhaD3gpnZXiRQV6b2owOlbVbQFHesYDyPMicH+g5gYKFoly8P5MFA+QbN8FAh0aP4BzG8IcD8xCJhRBoD2eg45kN7ZymPmM8PCoNkRjPqEmWlZXSDxCBj6ylsxt0Cb3OZp97/nkb9v+oDwLUBer/z6FeUdYcpqQwvGlGXBrSXAKzhWIupKMTFpzwhnaiHvtz5U+bEQGP3uMIupD3ttNPsNXapQCSwPf2Elre4LYZ9nWS7xp290ISTzYhtfKEkrWlLDhMYxHsZExjHWmOMgyMdmL7UQ9mmV6acFYhEqLrnPKkfWo/QekW0t6Kcu+Q3vtUNy5kyqsSgQuy33364bb2xFKJySve+OdBVBUITFmRvCwQFI9LJrxgyKiT8L8h151TyYUkBXzCi1LnWB1UtPMqbLPPWWFm74E/2cJ7caIUjHcDGGCtghB9BvkelViK8ZVcFAJNF+ZlnnsnSPAa2pEd1rZz1F1xwAXvpXQgUXfADgA4C1WLG1p3KN4R75XtKvHGmjl/NIJ8EWZQdsUnu5fy4ARtLZBJCHyvzKjg9lkH1KnCpVdmhc2c1kAgD8GCgk2PEnhDiQOnLK8lQjdZPKgPiUzaTY2np1w0ekKisEaUAJ2khtk7Ab55izBeW/KzvkWDxHFQAGJGuUqiQlmDSZ7MmlmKQZewiY1OVxoEXnGYKWq/qXlW/4wUzuytQrOgYO9Vu3Zmuyt9GIHS8O66LPeRUjhwsT0pCVEEkcmRCfzbza5LOg4GQUzJgC2kJ38CjFvlSzv7774+xuAA5Q3iF6gwqLYkImjgd4dV9ANQPjoongqEAi/KZbHSvvp5IyZ0DOUqeEF2pRdJAGj9C9TTGkqffS6ilV0QeedKf7+UhkSNL+bVXhlQblVBNCb3zV0dchUdeUXWs8Yq9eEYJFaiO42f+VBsZ0dGMwmmqhfhkBWgBCCepGjCFoo2wZb76ejLKXXWSo2VwGdIBIl6t83khPh3vYJBkUeQBTC6Rk8QSML6Y1VLdguZLnyWQJExxa2xAbwbySoZEZiRkexjgFF2soJzyuQ9LSjtFAJPgCIrBYws5+OU4C6jqXuuY5ggrw2QDG9PDWPqinEdj8QlSGZuHJPPu1HISKvos9IMAtwSJVwJSEy/x0IwQEnDbP+WA0xqcR2+SWVN7qTcwbxly+rYSAiS4LBAyTCA5H3PMMTY6Lq+clUHLexWERCM62xDhUYSIMY/UcpfNvbVGvjIvZqyx0pW+ntW5mqUtsFIlkJZ0BdKSColphHhU8RjCmEWUUOVHFRUUzMTJEgEhrIAgKoojMEgisEzkS86gmuF8IL0NMBoaN7+qDaRT1zrHe6Slu5lobJ5ca+JJrwxSXo291W2hsWRjY9aEVMqAMLNG4jGDzFS3Rl+hPBqAJ6q1bKzG5374MfbxQQ2nK0WwpWyoGcJBuJrPWwqQYNwcXqV8FpWl5fGvaSqAzRMd2GWXSXnIpDWCSooXz2qdGZSTbHRwaiNqiWr5jOrcCDwP8xLtEdgCqZvqpMm3jCUJ2eKC1uebLdEqd24kv+U1svNuua4siOVIjznp4dKmILMZMSxDypaxvTDzwS7TaiQoSkUZyy8x0qMY04h7ZYsyw72adcIJ8dblj4qxoLQnITEHnguWFDZUd+LogKzisENXEZoBp9lObzFJOURSslVwk+qkdAIPTlosiwDja0MFEnL0E7qC0AcUpTUA8Z5k5uPDqxgFw82rk4hqu5UJDdsdETY117/DCAl1hnuwGbuUBEY1k8QQPSRSnhGNtBFv0GIaQiItc6jsHAKMtgnDScA9/Y1l4HEaezGEL0+NoVc+OyQw2+NYJnM1x5a3HWapbQkDGmQsl8pyAawTMMl7sggt0wOqBLofbQ2i+mLgE8VWygXPLv6XYKyRWr1lFBmYBcNwjRFz6CKkWSdaTH7MSo5ByQXm614d9iHLhRukg2oMnmPMC8jcVTAm5xlv4VfoJR71XSBxpkaXx3Rz3M6B0NJVWIpSGLSyJHMd9vprAnhW4iryM4oTHeE4W+BpCc+aDiOkdLxXIp5yKXpxo8aaQ8QeJWD2KIpEJmyadXGo3upOuUumwVW7+FzpMwk8SnOm6oLeDtLocSADgQ2hOwWIjbugreu32skOszTwiDAQSBRSDJM/aQwtRcWbNsUCjxwl2UgSMg2PaXFAMlZFcFhMWuMReJXQMsGmR2UFCZb/dT/kwGbgJx/HxYfBAG0tmLrjFv8mqu6edpP6OPSjOjqhjfIthFw6AXXPYhpjIJbmK5GLJAzlhJPZSK+LtFgAP3icpgwiOXcRqMXRNrjMCGwrIQwwyJMR2unT7nFMEDo7AWCQUDSgHDrJGWEst9BAxofBT2wGVmpc/PNpd6ELoRm7eE85TTPIh3xOCBgcqK7wM59LUU7MoSiacChqtIPU/pGsjl6Upr1d7sZlO+XKJD2yRoz5GUqqUPrBo2vWuGcvkGXGIJftBvjvHjm18xlDmEHz+38Byn4Z676oy/0AAAAASUVORK5CYII=;" vertex="1" parent="1">
          <mxGeometry x="37.78" y="215" width="105.22" height="94" as="geometry" />
        </mxCell>
        <mxCell id="yAyFMgW1h0PYPkcusyNA-5" value="Dev Teams" style="text;html=1;strokeColor=none;fillColor=none;align=center;verticalAlign=middle;whiteSpace=wrap;rounded=0;fontSize=20;fontFamily=Architects Daughter;" vertex="1" parent="1">
          <mxGeometry x="37.78" y="179" width="111" height="30" as="geometry" />
        </mxCell>
        <mxCell id="yAyFMgW1h0PYPkcusyNA-6" value="Dev Portal: Backstage" style="rounded=1;whiteSpace=wrap;html=1;sketch=1;hachureGap=4;jiggle=2;curveFitting=1;fontFamily=Architects Daughter;fontSource=https%3A%2F%2Ffonts.googleapis.com%2Fcss%3Ffamily%3DArchitects%2BDaughter;fontSize=20;verticalAlign=bottom;fillColor=#60a917;strokeColor=#2D7600;fontColor=#000000;fontStyle=1" vertex="1" parent="1">
          <mxGeometry x="-167" y="415" width="541" height="124" as="geometry" />
        </mxCell>
        <mxCell id="yAyFMgW1h0PYPkcusyNA-7" value="Catalog" style="rounded=0;whiteSpace=wrap;html=1;sketch=1;hachureGap=4;jiggle=2;curveFitting=1;fontFamily=Architects Daughter;fontSource=https%3A%2F%2Ffonts.googleapis.com%2Fcss%3Ffamily%3DArchitects%2BDaughter;fontSize=20;" vertex="1" parent="1">
          <mxGeometry x="-116" y="440.5" width="120" height="60" as="geometry" />
        </mxCell>
        <mxCell id="yAyFMgW1h0PYPkcusyNA-8" value="Docs" style="rounded=0;whiteSpace=wrap;html=1;sketch=1;hachureGap=4;jiggle=2;curveFitting=1;fontFamily=Architects Daughter;fontSource=https%3A%2F%2Ffonts.googleapis.com%2Fcss%3Ffamily%3DArchitects%2BDaughter;fontSize=20;" vertex="1" parent="1">
          <mxGeometry x="43.5" y="439" width="120" height="61.5" as="geometry" />
        </mxCell>
        <mxCell id="yAyFMgW1h0PYPkcusyNA-33" style="edgeStyle=orthogonalEdgeStyle;rounded=0;sketch=1;hachureGap=4;jiggle=2;curveFitting=1;orthogonalLoop=1;jettySize=auto;html=1;entryX=0;entryY=0.5;entryDx=0;entryDy=0;entryPerimeter=0;fontFamily=Architects Daughter;fontSource=https%3A%2F%2Ffonts.googleapis.com%2Fcss%3Ffamily%3DArchitects%2BDaughter;fontSize=16;" edge="1" parent="1" source="yAyFMgW1h0PYPkcusyNA-9" target="yAyFMgW1h0PYPkcusyNA-32">
          <mxGeometry relative="1" as="geometry" />
        </mxCell>
        <mxCell id="yAyFMgW1h0PYPkcusyNA-9" value="Templates" style="rounded=0;whiteSpace=wrap;html=1;sketch=1;hachureGap=4;jiggle=2;curveFitting=1;fontFamily=Architects Daughter;fontSource=https%3A%2F%2Ffonts.googleapis.com%2Fcss%3Ffamily%3DArchitects%2BDaughter;fontSize=20;" vertex="1" parent="1">
          <mxGeometry x="217" y="440.5" width="120" height="61.5" as="geometry" />
        </mxCell>
        <mxCell id="yAyFMgW1h0PYPkcusyNA-10" value="&lt;font&gt;Control &lt;br&gt;Plane &lt;br&gt;Cluster&lt;/font&gt;" style="rounded=1;whiteSpace=wrap;html=1;sketch=1;hachureGap=4;jiggle=2;curveFitting=1;fontFamily=Architects Daughter;fontSource=https%3A%2F%2Ffonts.googleapis.com%2Fcss%3Ffamily%3DArchitects%2BDaughter;fontSize=20;verticalAlign=bottom;align=right;spacingTop=-2;spacingBottom=12;spacingRight=15;fontStyle=1;fillColor=#1ba1e2;strokeColor=#006EAF;fontColor=#000099;" vertex="1" parent="1">
          <mxGeometry x="-167" y="606" width="535" height="243" as="geometry" />
        </mxCell>
        <mxCell id="yAyFMgW1h0PYPkcusyNA-11" value="Resources" style="rounded=1;whiteSpace=wrap;html=1;sketch=1;hachureGap=4;jiggle=2;curveFitting=1;fontFamily=Architects Daughter;fontSource=https%3A%2F%2Ffonts.googleapis.com%2Fcss%3Ffamily%3DArchitects%2BDaughter;fontSize=20;verticalAlign=bottom;fillColor=#f8cecc;strokeColor=#b85450;" vertex="1" parent="1">
          <mxGeometry x="-190" y="952.5" width="611" height="188" as="geometry" />
        </mxCell>
        <mxCell id="yAyFMgW1h0PYPkcusyNA-21" style="edgeStyle=orthogonalEdgeStyle;rounded=0;sketch=1;hachureGap=4;jiggle=2;curveFitting=1;orthogonalLoop=1;jettySize=auto;html=1;exitX=0.5;exitY=1;exitDx=0;exitDy=0;entryX=0.5;entryY=0;entryDx=0;entryDy=0;fontFamily=Architects Daughter;fontSource=https%3A%2F%2Ffonts.googleapis.com%2Fcss%3Ffamily%3DArchitects%2BDaughter;fontSize=16;" edge="1" parent="1" source="yAyFMgW1h0PYPkcusyNA-12" target="yAyFMgW1h0PYPkcusyNA-20">
          <mxGeometry relative="1" as="geometry" />
        </mxCell>
        <mxCell id="yAyFMgW1h0PYPkcusyNA-12" value="ArgoCD" style="rounded=0;whiteSpace=wrap;html=1;sketch=1;hachureGap=4;jiggle=2;curveFitting=1;fontFamily=Architects Daughter;fontSource=https%3A%2F%2Ffonts.googleapis.com%2Fcss%3Ffamily%3DArchitects%2BDaughter;fontSize=20;" vertex="1" parent="1">
          <mxGeometry x="-116" y="638" width="392" height="64" as="geometry" />
        </mxCell>
        <mxCell id="yAyFMgW1h0PYPkcusyNA-16" style="edgeStyle=orthogonalEdgeStyle;rounded=0;sketch=1;hachureGap=4;jiggle=2;curveFitting=1;orthogonalLoop=1;jettySize=auto;html=1;exitX=0;exitY=0.5;exitDx=0;exitDy=0;exitPerimeter=0;entryX=1;entryY=0.5;entryDx=0;entryDy=0;fontFamily=Architects Daughter;fontSource=https%3A%2F%2Ffonts.googleapis.com%2Fcss%3Ffamily%3DArchitects%2BDaughter;fontSize=16;" edge="1" parent="1" source="yAyFMgW1h0PYPkcusyNA-14" target="yAyFMgW1h0PYPkcusyNA-12">
          <mxGeometry relative="1" as="geometry" />
        </mxCell>
        <mxCell id="yAyFMgW1h0PYPkcusyNA-14" value="GitOps &lt;br&gt;Repo" style="shape=cylinder3;whiteSpace=wrap;html=1;boundedLbl=1;backgroundOutline=1;size=15;sketch=1;hachureGap=4;jiggle=2;curveFitting=1;fontFamily=Architects Daughter;fontSource=https%3A%2F%2Ffonts.googleapis.com%2Fcss%3Ffamily%3DArchitects%2BDaughter;fontSize=20;" vertex="1" parent="1">
          <mxGeometry x="560" y="630" width="117" height="80" as="geometry" />
        </mxCell>
        <mxCell id="yAyFMgW1h0PYPkcusyNA-15" style="edgeStyle=orthogonalEdgeStyle;rounded=0;sketch=1;hachureGap=4;jiggle=2;curveFitting=1;orthogonalLoop=1;jettySize=auto;html=1;exitX=0.5;exitY=1;exitDx=0;exitDy=0;entryX=0.5;entryY=0;entryDx=0;entryDy=0;entryPerimeter=0;fontFamily=Architects Daughter;fontSource=https%3A%2F%2Ffonts.googleapis.com%2Fcss%3Ffamily%3DArchitects%2BDaughter;fontSize=16;dashed=1;" edge="1" parent="1" source="yAyFMgW1h0PYPkcusyNA-9" target="yAyFMgW1h0PYPkcusyNA-14">
          <mxGeometry relative="1" as="geometry" />
        </mxCell>
        <mxCell id="yAyFMgW1h0PYPkcusyNA-17" value="Create PR" style="text;html=1;strokeColor=none;fillColor=none;align=center;verticalAlign=middle;whiteSpace=wrap;rounded=0;fontSize=20;fontFamily=Architects Daughter;" vertex="1" parent="1">
          <mxGeometry x="468" y="535" width="131" height="30" as="geometry" />
        </mxCell>
        <mxCell id="yAyFMgW1h0PYPkcusyNA-19" value="" style="shape=flexArrow;endArrow=classic;html=1;rounded=0;sketch=1;hachureGap=4;jiggle=2;curveFitting=1;fontFamily=Architects Daughter;fontSource=https%3A%2F%2Ffonts.googleapis.com%2Fcss%3Ffamily%3DArchitects%2BDaughter;fontSize=16;entryX=0.477;entryY=-0.016;entryDx=0;entryDy=0;entryPerimeter=0;" edge="1" parent="1" target="yAyFMgW1h0PYPkcusyNA-6">
          <mxGeometry width="50" height="50" relative="1" as="geometry">
            <mxPoint x="91" y="310" as="sourcePoint" />
            <mxPoint x="111" y="381" as="targetPoint" />
          </mxGeometry>
        </mxCell>
        <mxCell id="yAyFMgW1h0PYPkcusyNA-40" style="edgeStyle=orthogonalEdgeStyle;rounded=0;sketch=1;hachureGap=4;jiggle=2;curveFitting=1;orthogonalLoop=1;jettySize=auto;html=1;exitX=0.5;exitY=1;exitDx=0;exitDy=0;entryX=0.442;entryY=-0.013;entryDx=0;entryDy=0;entryPerimeter=0;fontFamily=Architects Daughter;fontSource=https%3A%2F%2Ffonts.googleapis.com%2Fcss%3Ffamily%3DArchitects%2BDaughter;fontSize=16;" edge="1" parent="1" source="yAyFMgW1h0PYPkcusyNA-20" target="yAyFMgW1h0PYPkcusyNA-11">
          <mxGeometry relative="1" as="geometry" />
        </mxCell>
        <mxCell id="yAyFMgW1h0PYPkcusyNA-20" value="Crossplane" style="rounded=0;whiteSpace=wrap;html=1;sketch=1;hachureGap=4;jiggle=2;curveFitting=1;fontFamily=Architects Daughter;fontSource=https%3A%2F%2Ffonts.googleapis.com%2Fcss%3Ffamily%3DArchitects%2BDaughter;fontSize=20;" vertex="1" parent="1">
          <mxGeometry x="-116" y="757" width="392" height="64" as="geometry" />
        </mxCell>
        <mxCell id="yAyFMgW1h0PYPkcusyNA-22" value="Applies" style="text;html=1;strokeColor=none;fillColor=none;align=center;verticalAlign=middle;whiteSpace=wrap;rounded=0;fontSize=20;fontFamily=Architects Daughter;" vertex="1" parent="1">
          <mxGeometry x="89" y="710" width="60" height="30" as="geometry" />
        </mxCell>
        <mxCell id="yAyFMgW1h0PYPkcusyNA-23" value="Database" style="shape=cylinder3;whiteSpace=wrap;html=1;boundedLbl=1;backgroundOutline=1;size=15;sketch=1;hachureGap=4;jiggle=2;curveFitting=1;fontFamily=Architects Daughter;fontSource=https%3A%2F%2Ffonts.googleapis.com%2Fcss%3Ffamily%3DArchitects%2BDaughter;fontSize=20;" vertex="1" parent="1">
          <mxGeometry x="-142" y="998.5" width="117" height="80" as="geometry" />
        </mxCell>
        <mxCell id="yAyFMgW1h0PYPkcusyNA-24" value="K8s Cluster" style="rounded=1;whiteSpace=wrap;html=1;sketch=1;hachureGap=4;jiggle=2;curveFitting=1;fontFamily=Architects Daughter;fontSource=https%3A%2F%2Ffonts.googleapis.com%2Fcss%3Ffamily%3DArchitects%2BDaughter;fontSize=20;" vertex="1" parent="1">
          <mxGeometry x="-1" y="1011.5" width="120" height="60" as="geometry" />
        </mxCell>
        <mxCell id="yAyFMgW1h0PYPkcusyNA-25" value="Bucket" style="rounded=1;whiteSpace=wrap;html=1;sketch=1;hachureGap=4;jiggle=2;curveFitting=1;fontFamily=Architects Daughter;fontSource=https%3A%2F%2Ffonts.googleapis.com%2Fcss%3Ffamily%3DArchitects%2BDaughter;fontSize=20;" vertex="1" parent="1">
          <mxGeometry x="140" y="1013.5" width="120" height="60" as="geometry" />
        </mxCell>
        <mxCell id="yAyFMgW1h0PYPkcusyNA-26" value="...." style="rounded=1;whiteSpace=wrap;html=1;sketch=1;hachureGap=4;jiggle=2;curveFitting=1;fontFamily=Architects Daughter;fontSource=https%3A%2F%2Ffonts.googleapis.com%2Fcss%3Ffamily%3DArchitects%2BDaughter;fontSize=42;" vertex="1" parent="1">
          <mxGeometry x="284" y="1011.5" width="120" height="60" as="geometry" />
        </mxCell>
        <mxCell id="yAyFMgW1h0PYPkcusyNA-28" value="Creates &amp;amp; Manage" style="text;html=1;strokeColor=none;fillColor=none;align=center;verticalAlign=middle;whiteSpace=wrap;rounded=0;fontSize=20;fontFamily=Architects Daughter;" vertex="1" parent="1">
          <mxGeometry x="74" y="900" width="228.75" height="30" as="geometry" />
        </mxCell>
        <mxCell id="yAyFMgW1h0PYPkcusyNA-32" value="Example &lt;br&gt;Git&lt;br&gt;Repo" style="shape=cylinder3;whiteSpace=wrap;html=1;boundedLbl=1;backgroundOutline=1;size=15;sketch=1;hachureGap=4;jiggle=2;curveFitting=1;fontFamily=Architects Daughter;fontSource=https%3A%2F%2Ffonts.googleapis.com%2Fcss%3Ffamily%3DArchitects%2BDaughter;fontSize=20;" vertex="1" parent="1">
          <mxGeometry x="558" y="416.25" width="117" height="110" as="geometry" />
        </mxCell>
        <mxCell id="yAyFMgW1h0PYPkcusyNA-34" value="Create" style="text;html=1;strokeColor=none;fillColor=none;align=center;verticalAlign=middle;whiteSpace=wrap;rounded=0;fontSize=20;fontFamily=Architects Daughter;" vertex="1" parent="1">
          <mxGeometry x="447" y="439" width="131" height="30" as="geometry" />
        </mxCell>
        <mxCell id="yAyFMgW1h0PYPkcusyNA-42" style="edgeStyle=orthogonalEdgeStyle;rounded=0;sketch=1;hachureGap=4;jiggle=2;curveFitting=1;orthogonalLoop=1;jettySize=auto;html=1;entryX=0.5;entryY=1;entryDx=0;entryDy=0;entryPerimeter=0;fontFamily=Architects Daughter;fontSource=https%3A%2F%2Ffonts.googleapis.com%2Fcss%3Ffamily%3DArchitects%2BDaughter;fontSize=16;" edge="1" parent="1" source="yAyFMgW1h0PYPkcusyNA-36" target="yAyFMgW1h0PYPkcusyNA-14">
          <mxGeometry relative="1" as="geometry" />
        </mxCell>
        <mxCell id="yAyFMgW1h0PYPkcusyNA-44" style="edgeStyle=orthogonalEdgeStyle;rounded=0;sketch=1;hachureGap=4;jiggle=2;curveFitting=1;orthogonalLoop=1;jettySize=auto;html=1;entryX=1;entryY=0.828;entryDx=0;entryDy=0;entryPerimeter=0;fontFamily=Architects Daughter;fontSource=https%3A%2F%2Ffonts.googleapis.com%2Fcss%3Ffamily%3DArchitects%2BDaughter;fontSize=16;" edge="1" parent="1" source="yAyFMgW1h0PYPkcusyNA-36" target="yAyFMgW1h0PYPkcusyNA-35">
          <mxGeometry relative="1" as="geometry" />
        </mxCell>
        <mxCell id="yAyFMgW1h0PYPkcusyNA-36" value="" style="shape=image;verticalLabelPosition=bottom;labelBackgroundColor=default;verticalAlign=top;aspect=fixed;imageAspect=0;image=data:image/png,iVBORw0KGgoAAAANSUhEUgAAAEsAAABDCAIAAABbf2/QAAAKp2lDQ1BJQ0MgUHJvZmlsZQAASImVlgdUk8kWx+f70kNCS0A6oTfpLYCUEFoABekgKiEJEEoIgaBiRxZXcEUREQF1RRcpCq5KtSEWbIuCAvYNsgio62LBhuV9wCG4+85777x7zmR+ud+dO/fOmTnnDwCZxBYKU2F5ANIEWaIQX09aVHQMDTcCCAADSMAOUNmcTCEjODgQIDY7/93e9QNoar5tPpXr37//V1Pg8jI5AEDBCMdzMzlpCJ9ExlOOUJQFAKoS8eutyBJOcQfCVBFSIMJ3pjhxhkenOH6GP0/HhIUwAUAjXeFJbLYoEQCSBuKnZXMSkTykBQhbCbh8AcJT9bqlpaVzET6CsDESI0R4Kj89/rs8iX/LGS/NyWYnSnmml2nDe/EzhansVf/ncfxvS0sVz+5hiAxSksgvBJllkTO7m5IeIGVB/KKgWeZzp+OnOUnsFz7LnExmzCxz2V4B0rWpiwJnOYHvw5LmyWKFzTIv0zt0lkXpIdK9EkRMxiyzRXP7ilPCpf4kHkuaPycpLHKWs/kRi2Y5MyU0YC6GKfWLxCHS+nkCX8+5fX2kvadlftcvnyVdm5UU5iftnT1XP0/AmMuZGSWtjcvz8p6LCZfGC7M8pXsJU4Ol8bxUX6k/MztUujYLuZBza4OlZ5jM9g+eZRAMGMAGOAI6YIIIALJ4K7OmmmCmC1eJ+IlJWTQG8rp4NJaAYzGfZmNlYwvA1FuduQpv7k6/QUgZP+fLSEGu8FsAYL05X5wxAG2FACiZzPkMkHtNzgXglIQjFmXP+NBTPxhABHKAClSBFtADxsAcqc8BuAAP4A38QRAIA9FgGeCAJJAGRGAFWAM2gnxQCLaDXaAc7AcHQQ04Co6DFnAanAeXwXVwC/SBB0AChsFzMA7egUkIgnAQGaJAqpA2ZACZQTYQHXKDvKFAKASKhuKgREgAiaE10CaoECqGyqEDUC30K9QGnYeuQj3QPWgQGoNeQ59gFEyCqbAmbAhbwnSYAQfAYfBSOBHOgHPgPHgbXAZXwUfgZvg8fB3ugyXwc3gCBVAyKGWUDsocRUcxUUGoGFQCSoRahypAlaKqUA2odlQX6jZKgnqB+ojGoiloGtoc7YL2Q4ejOegM9Dr0VnQ5ugbdjL6Ivo0eRI+jv2LIGA2MGcYZw8JEYRIxKzD5mFJMNaYJcwnThxnGvMNiscpYI6wj1g8bjU3GrsZuxe7FNmI7sD3YIewEDodTxZnhXHFBODYuC5eP24M7gjuH68UN4z7gZfDaeBu8Dz4GL8Dn4kvxdfiz+F78CH6SIE8wIDgTgghcwipCEeEQoZ1wkzBMmCQqEI2IrsQwYjJxI7GM2EC8RHxIfCMjI6Mr4ySzWIYvs0GmTOaYzBWZQZmPJEWSKYlJiiWJSdtIh0kdpHukN2Qy2ZDsQY4hZ5G3kWvJF8iPyR9kKbIWsixZrux62QrZZtle2ZdyBDkDOYbcMrkcuVK5E3I35V7IE+QN5ZnybPl18hXybfID8hMKFAVrhSCFNIWtCnUKVxVGFXGKhoreilzFPMWDihcUhygoih6FSeFQNlEOUS5RhqlYqhGVRU2mFlKPUrup40qKSnZKEUorlSqUzihJlFHKhsos5VTlIuXjyv3Kn+ZpzmPM483bMq9hXu+89yrqKh4qPJUClUaVPpVPqjRVb9UU1R2qLaqP1NBqpmqL1Vao7VO7pPZCnaruos5RL1A/rn5fA9Yw1QjRWK1xUOOGxoSmlqavplBzj+YFzRdayloeWslaJVpntca0Kdpu2nztEu1z2s9oSjQGLZVWRrtIG9fR0PHTEesc0OnWmdQ10g3XzdVt1H2kR9Sj6yXoleh16o3ra+sv1F+jX69/34BgQDdIMtht0GXw3tDIMNJws2GL4aiRihHLKMeo3uihMdnY3TjDuMr4jgnWhG6SYrLX5JYpbGpvmmRaYXrTDDZzMOOb7TXrmY+Z7zRfML9q/oA5yZxhnm1ebz5ooWwRaJFr0WLx0lLfMsZyh2WX5Vcre6tUq0NWD6wVrf2tc63brV/bmNpwbCps7tiSbX1s19u22r6yM7Pj2e2zu2tPsV9ov9m+0/6Lg6ODyKHBYcxR3zHOsdJxgE6lB9O30q84YZw8ndY7nXb66OzgnOV83PkvF3OXFJc6l9EFRgt4Cw4tGHLVdWW7HnCVuNHc4tx+dpO467iz3avcn3joeXA9qj1GGCaMZMYRxktPK0+RZ5Pne6Yzcy2zwwvl5etV4NXtregd7l3u/dhH1yfRp95n3Nfed7Vvhx/GL8Bvh98AS5PFYdWyxv0d/df6XwwgBYQGlAc8CTQNFAW2L4QX+i/cufDhIoNFgkUtQSCIFbQz6FGwUXBG8KnF2MXBiysWPw2xDlkT0hVKCV0eWhf6LswzrCjsQbhxuDi8M0IuIjaiNuJ9pFdkcaQkyjJqbdT1aLVofnRrDC4mIqY6ZmKJ95JdS4Zj7WPzY/uXGi1dufTqMrVlqcvOLJdbzl5+Ig4TFxlXF/eZHcSuYk/Es+Ir48c5TM5uznOuB7eEO8Zz5RXzRhJcE4oTRhNdE3cmjiW5J5UmveAz+eX8V8l+yfuT36cEpRxO+ZYamdqYhk+LS2sTKApSBBfTtdJXpvcIzYT5QkmGc8aujHFRgKg6E8pcmtmaRUVE0Q2xsfgH8WC2W3ZF9ocVEStOrFRYKVh5Y5Xpqi2rRnJ8cn5ZjV7NWd25RmfNxjWDaxlrD6yD1sWv61yvtz5v/fAG3w01G4kbUzb+lmuVW5z7dlPkpvY8zbwNeUM/+P5Qny+bL8of2Oyyef+P6B/5P3Zvsd2yZ8vXAm7BtUKrwtLCz1s5W6/9ZP1T2U/ftiVs6y5yKNq3HbtdsL1/h/uOmmKF4pzioZ0LdzaX0EoKSt7uWr7raqld6f7dxN3i3ZKywLLWPfp7tu/5XJ5U3lfhWdFYqVG5pfL9Xu7e3n0e+xr2a+4v3P/pZ/7Pdw/4HmiuMqwqPYg9mH3w6aGIQ12/0H+prVarLqz+clhwWFITUnOx1rG2tk6jrqgerhfXjx2JPXLrqNfR1gbzhgONyo2Fx8Ax8bFnv8b92n884HjnCfqJhpMGJyubKE0FzVDzqubxlqQWSWt0a0+bf1tnu0t70ymLU4dP65yuOKN0pugs8Wze2W/ncs5NdAg7XpxPPD/UubzzwYWoC3cuLr7YfSng0pXLPpcvdDG6zl1xvXL6qvPVtmv0ay3XHa4337C/0fSb/W9N3Q7dzTcdb7becrrV3rOg52yve+/52163L99h3bnet6ivpz+8/+5A7IDkLvfu6L3Ue6/uZ9+ffLDhIeZhwSP5R6WPNR5X/W7ye6PEQXJm0GvwxpPQJw+GOEPP/8j84/Nw3lPy09IR7ZHaUZvR02M+Y7eeLXk2/Fz4fPJF/p8Kf1a+NH558i+Pv26MR40PvxK9+vZ66xvVN4ff2r3tnAieePwu7d3k+4IPqh9qPtI/dn2K/DQyueIz7nPZF5Mv7V8Dvj78lvbtm5AtYk9LARQy4IQEAF4fRnRCNACUWwAQl8xo6WmDZvT/NIH/xDN6e9ocAKjuACBsAwCBHgDsm5KyCJOREYz8D/MAsK2tdMzq3mmNPmXYEwAYpSHKAXq4y0UI/mEz+v27uv85A2nWv83/Ao1HAePKfCU8AAAAOGVYSWZNTQAqAAAACAABh2kABAAAAAEAAAAaAAAAAAACoAIABAAAAAEAAABLoAMABAAAAAEAAABDAAAAAJezDkAAABdqSURBVGgFvdoF0FbVFgbgSyhiYWB3d3d367XFQowRW3FsHWNGhFHHscbu7m5sBRS7sLvF7rrqfc7/cjefv1/w48Uz43GfffZee71rvSvO99Ppjz/++NfYvMjv1KlT7Qk50eTvv//euXPnLCjLfvvtty5duljvrbsFtXvHYPx397c8sh086824Au8/bVcm3T0F3s8//wxb4FnpanlQowWdYtFGr8fqPL2dDpJBwOS4uPHXX3/t2rUrW/xNHf4hhLHjX9UFBrYPPvjgs88+++6770CaZJJJZphhhm7duhlzqXsh8JhB7Tpm2/4vu6j+448/Xnrppffff/9XX3015ZRT8mf37t0nm2yyZZZZZqWVVppwwgn/Jjx6/nM+LA6kdPT+4YcfdtppJyG3/fbbL7bYYnz44IMPLrXUUu+88w7Ys8wyy8CBA6kIdtaPoVnbjhu7typRtIVcjsFM9Pv000/XWWedvn37wunR/YwzznjggQeEn0dQV1111S233PLrr7/+5ZdfbBljFcd6Lq1reIAvvPDCmWeeuX///uOOO+4333xz+eWXTz755EsuuaTAe/XVV90vvvji8ccf/9BDD2WL2jxUV2CTyYYIKRHL2Wxc7hmwqAFju+fKjHHclUFe4acrQsxQ9+WXX37++ef33nvvSSed9IsvvrjvvvuE32qrrTbeeOO99NJL77333vzzzz/ddNMdffTRTz311CWXXJKDckQ5KMJb3hsipEcCoEgshjSIxkl0MYQZdHJehaYtxZv3GGCE2OWeCwlnn312kebtkCFD3DfbbDNZ9KOPPnr33XdXXnnliSee+MMPP+TG9ddff/jw4W+//XZBQjgh5bHloCHC6Gc/iZTz6KJKpDNqAHvLEO5e4Zs1xmLJNc4447gHWPSw11tjDlxwwQUteOSRRz7//HMhRwiu8u2KK65IzmuvvXb33XfPO++8u+++O/Y++eSTMU2Rk8Ho3BsidGTBQ5BHV1CZ5z2T8Pz0008ZRPUcSXWXt+5mAsxjtnO1IjH33HM/9NBDkKy33nowMNkzzzwz11xzIeoLL7zAaVNMMcVaa63Fsausssott9wS20V+ziKWJplpcm9RD6Ei2j2KGsP25ZdfXnXVVcxPUfMLLbSQXC+KAAhvTfIeV9CANgFWTACMwoCQb775pnSqDBI7dOhQVV7sEWulmRVWWIGBHAHzo48+ysPqZJAUUZGcyUb3hj60IYIiha4uACi3ySab7LXXXvfcc88EE0yw7LLLUrRfv35qNF4pbnaBFyfby9JE0diYhPhTenzjjTfE2FRTTWX9K6+8oq1ZfPHFn3766eCXaQCzxTI0nnPOOUVjOwwFZ7v5do8tfBiFsocnP/nkk+22286pBxxwgDItm7/44ouqFjzXXXfd6aefLmD23HNPeQKkWCR6GNtOGqV5g5zpp5+eT2z8+OOP33rrLZkGbHnVzIwzzjj11FNbb16F3GCDDSTYu+66C2y5t1aldmDqPrb2oW3xgKKsavHYySeffMghh4gQKZF1p5lmGgfLFjBbc/DBB2vBEIyuNhbrGIDnzl3cgqUw8BgHyjqc/9xzz6kZPXr0INNKB8mlQpEtkEXKhZ+lal3nMfKb3JshtC3iohlj33vvvYcddthGG20kPBQxAxnfshEjRjzxxBOCCnJpY5999nn//ffjNxJioEiDBP1oLG3KUlyEqDwml2i4HQQt2PDfdNNNwmGOOebgNDkJzplmmimaEBWO1KI1WfdqhtBJ2UOcYxiVgQUPmg0bNkwq1xlbA95tt91m3hozUo5MiL20iY2LHhZIJ9NOO23Pnj1R/YYbboBKUlXW9TcKoIxlDSsIaYG9wAILOFrAcy/zkeMtmS7+J79Irostk80QoplFzsgAqrXXXpuKyMmiMrvzvv32Wxr4DuAWl6Rnhg+pCDlVSKBKNCPKIzNxlGykVASYKo/eyy23HG5j+B133CHkoGU+Xfipp56KvdqAQMq9DWZrilan+6/JFZ0s4Df1it8efvhhdxUC2ZgQEomBWxxJY0ElIGVF33vff/890wQkCRZ7BMxYdMlGgwcPxlUXpdUG1cUWAsFeeOGFoZW3BQX+M5loJwFmxorrYrgmyudVQ4QERS18MHAM5eRApErsmZQJ6OR7Bzkh8ZnHD5ArcfRTuBmoyClq0UwRt93A15NldqGGx8ceeww2l0NxYdNNN+XPPfbYY+edd44cNipySChxZNzoaoiQoAjNTnEv6MUPW+aYQYMGUWLrrbe2jIfPP/98tp9tttl474orrpCWJBtC6FqIYGXsJbUoofRTDwShwGMghJSTSWBKqaV3795Srgq077772gW/ZSSQZqP1xuzYCFiZ/xOMMlsGBBENyRJLLOFbTqEn1AFcqgRvtdVWIsTB8DtPTZMDb731VklPWqIKdhHlVQxvI+tkhmSp5ZRTTuElDRpuWzbPPPNgJqKSibdrrLGGykGOtCQnIXZRzMB87FU7+ddxw4oftcAzoMrrr7+un/RIBGOjluSGWh5vvvlmXOVMhpCEOBkJFT1upKjoAi+WCjxb4ltKH3HEEczEWJo1+UYSZkGNxI477giz48gZMGDA7bffTuaBBx4oQKAih1ajA68CbGmTi5281UzxFVV8cQvF448/XkbJrscff/ykk07CTPivvvrqG2+8kROMTYouWUTRIyS8cvfIHIQ8++yzOhX5NnJsQU6GMCNpm2QdBFYSMYIhxL8YwVh2jFakZRAJje4NfRjwjG2nbKkug6c/piI2CjnSATCjEuq/5FiqJ2dwuBLC6jgWCYQYAGZeOtG7kyPqaMkt+rJFF100J2oYYJO0rr/+eiYTlqi+6667brPNNvpBk84CG59H04ddjjrqKKLrXlEOVTiQ0yR3OOU3eYLGuOoLY8MNN6SiOkH1vPIbhKqomjOEuhfJhPDM4Ycfzi6WKSdIjtiyl2p+9tln+6oABjYZCy15WEKGigM333xzHSLqqpnkAK+1QmZ2FyaUrKv8qMlGzkWb8gp/nK3J8DuKmDQvPI499lg/NxjzxnHHHSeKjMGWdXAJbKpjXRbQWwXX+si6eOiHCQ7nQN2fIJRXZRF6EzjffPNp4jkZ20H1rUwIBbR1Eqz1xjALxRNPPJHwllezOKwFaXznnXc6ns/lSS5iZrDNKxtoCadotMZPTEyeH9G8BQkeJATAGgXgrLPOklFo5lFONgaGu9RVkenbRTALNnf2YgW2MCYZNo9MqQ4vvfTSEpVz4c/VCGozhPaQaH82UwgV11xzTdr7lqG9V5IQLS3wiJwSDPJo7sxnl1jifAWAKB8HlBO6XtFb4tW+ZhmHs4IO5tprr8V8sQqtV4Kf9zifNR0n8vOjo2Suaz333HMDL/eIandvmGmsQ3G8d7ffAOllcDFJaUjEnl6RFUWUxc72VYVyvXr12m233RhYJCiPyLzuuuvyjwjkbewFGFp5Uhn0e5R58uFhuAQ2eBYIS3cC2YJZ5RWhoXOcddZZ5TNbiOLkUfHWYNQCIUFEYxpr4dIOO+xAP9/1aEN1cUL7pBYBw6hyhixCM3HiziEihwkmmmgiNOOHRRZZhCbyFibLtITjHkaQ6SzVn9P0vcgslwgH3GYvWVcexhGJFD+ZW0SIZwm8Aa5R0xXCuMtJhBqbifcohEU+PfFKCyb6lW+52zfEv9suxZDrOBOAI488UgLwijlwkjl8PWoGNEPadDM8sMUWW1jAFjyvlgSeHCthwsAosDmOpTQx4hM/5Vv1g69o4hSikChfqrZbJv34sqEzA6EDIQZMUCCOfPYOPLMM77XNxmLJj7a66l122UUWhVMUiTefuelmOAT9rGRRKrKI0DrvvPOY1uePtotRdF4ClU/gJ4pFtC9++JD92TTBprp6lKWJJR/DbRHPVMdJCVZ2oaHaw/PSAQYZk+9HE07mVRup7bKM8vFZQFZh5qRAshlO4xQDTQzVTzjhBKElm9MPMwUJomqjqMKl8Tny4CpD+AiQZn0NCDDwqE6CxAiebw5i/TLge8IpjK3t5k8Jxiu1Tr3lQyrqXRhX1fWIiuDhhS9SNZNu/mij8Cy//PKMCBhXUxuYaFI4GHju1cdIyGlggwO4Ub5SwUSdH2RVeZSjd0jouwEANUPVEnKswz8MKbmxOonnnHOOnoOf0Q8GpKINzVgEC/wCQAmTNEtTZgwDCeRfdtllzgIePJ6kEgm+icHDTxvxlj6Y7yBhTIIAxuG0FhbY61UtUasfizwDmfRAFTPI7RMePGYDQAzIKMLAz2Fiz29NGg6ZA2k5lh5CRYxx1+qrr66VcYx5C1DX8eZ5ScanqCaGBmZEr5+3zcPg2njjjelHY1yNMlKUmDRJB4ywixGFsUSKjbwqx+K2ZbQCgRru9K+FZ1dXU65a9Pagkwj0lYA85FKLUUn0w5HAQB7zbAwPYJxAJwWNK9QP8PDTmMz0MZgZjglaytGAM8kkn0x5ldKEwCyuzGOpZToKZ0kqUgBgqMgQ6BBUcowtQhGfsQM8V4RDVXtVOSfFtMzK+PpaSYxX5XFVy48UDmBRJvcBThBjg8QKihJFWZFycqCsaBd3MQGFKAePjOp4Y7ZzChrzrSM8yhngUdqCNAB9+vSRaRkdC1AJd7yl4ZVXXsnnfuMh0AL6sJeELA8xE2uSXKFsu/IYRJ0pJPxItNMLhNTv4afU4kjmRFe8VXnlEvBI0Nkwbc4WhyJKkuAuF/Io66RxLwCQIJgFnGxSZtI3a/3YnlrkUxESqjiXZQUbvzGllRbIW9RjLOGn2QDP6TRBMfnJLgFpEmuK94LQPfDcq780kFKN2toXphLrNKOfmKYKzWQ8BU3ex1VxyBAaDsSzS9igMcYyMEvjDIpK39Cyi+99XKCidofG8jA8mGYGBQgRz4SoGQcddBAF9GuJW461DDnppnJIKphCb0xBDcmcV7iR0XHVRiq5BwiBtVf1DkhTFNJPAECupGIn1nGRiKIZqJzpLVc7iTMxVpZje6IxMH4GWHKznVH4zd2fljTT3KXRUzakeCt1c7SB0BpZVHJmUBjUJ58mnMx7rGyNcGA4qZKSyMl8sjF41GB0BhImUpFHYgPEuBZhVS284ygDZtYcQ8gnpFhnRoFWBpCe8RzA/JoV661EOSHKLeohqCyKY9orfRYiWSMHOFXloAqEJOOVjeo+Q8jS2jrzlsleWGqg0vKewot+xMo3GCGS6a02sogUzXvCj7fpaYZYZ0ERYCweRHkc+ZM7a1GFlrK21EJ1j0wOHl2RxzaTHEszkMQbmvGVg/lTpOmJ1QyLL7roIrbA4SDnQDFJvorqr9ZUwUBHMLw+W81EOfwX+WIPiWDGGr9ZUMAjMGzKjdSNSiBhFuGAaXHEOesjlAX4WDwZeNWujBxsgDxQ+fYhxVKclMGVb+IkPSBlAqgcKfYMuAtgd9FvvQBme2rptnwN6A20BNdccw0HopkfO8jx9chSNENR2cLKbbfdVgZ2utZXOHCdJAet1MKH5qObQRjBWN56dBnTysArk2jICoxu4Gpb0oabhaD3gpnZXiRQV6b2owOlbVbQFHesYDyPMicH+g5gYKFoly8P5MFA+QbN8FAh0aP4BzG8IcD8xCJhRBoD2eg45kN7ZymPmM8PCoNkRjPqEmWlZXSDxCBj6ylsxt0Cb3OZp97/nkb9v+oDwLUBer/z6FeUdYcpqQwvGlGXBrSXAKzhWIupKMTFpzwhnaiHvtz5U+bEQGP3uMIupD3ttNPsNXapQCSwPf2Elre4LYZ9nWS7xp290ISTzYhtfKEkrWlLDhMYxHsZExjHWmOMgyMdmL7UQ9mmV6acFYhEqLrnPKkfWo/QekW0t6Kcu+Q3vtUNy5kyqsSgQuy33364bb2xFKJySve+OdBVBUITFmRvCwQFI9LJrxgyKiT8L8h151TyYUkBXzCi1LnWB1UtPMqbLPPWWFm74E/2cJ7caIUjHcDGGCtghB9BvkelViK8ZVcFAJNF+ZlnnsnSPAa2pEd1rZz1F1xwAXvpXQgUXfADgA4C1WLG1p3KN4R75XtKvHGmjl/NIJ8EWZQdsUnu5fy4ARtLZBJCHyvzKjg9lkH1KnCpVdmhc2c1kAgD8GCgk2PEnhDiQOnLK8lQjdZPKgPiUzaTY2np1w0ekKisEaUAJ2khtk7Ab55izBeW/KzvkWDxHFQAGJGuUqiQlmDSZ7MmlmKQZewiY1OVxoEXnGYKWq/qXlW/4wUzuytQrOgYO9Vu3Zmuyt9GIHS8O66LPeRUjhwsT0pCVEEkcmRCfzbza5LOg4GQUzJgC2kJ38CjFvlSzv7774+xuAA5Q3iF6gwqLYkImjgd4dV9ANQPjoongqEAi/KZbHSvvp5IyZ0DOUqeEF2pRdJAGj9C9TTGkqffS6ilV0QeedKf7+UhkSNL+bVXhlQblVBNCb3zV0dchUdeUXWs8Yq9eEYJFaiO42f+VBsZ0dGMwmmqhfhkBWgBCCepGjCFoo2wZb76ejLKXXWSo2VwGdIBIl6t83khPh3vYJBkUeQBTC6Rk8QSML6Y1VLdguZLnyWQJExxa2xAbwbySoZEZiRkexjgFF2soJzyuQ9LSjtFAJPgCIrBYws5+OU4C6jqXuuY5ggrw2QDG9PDWPqinEdj8QlSGZuHJPPu1HISKvos9IMAtwSJVwJSEy/x0IwQEnDbP+WA0xqcR2+SWVN7qTcwbxly+rYSAiS4LBAyTCA5H3PMMTY6Lq+clUHLexWERCM62xDhUYSIMY/UcpfNvbVGvjIvZqyx0pW+ntW5mqUtsFIlkJZ0BdKSColphHhU8RjCmEWUUOVHFRUUzMTJEgEhrIAgKoojMEgisEzkS86gmuF8IL0NMBoaN7+qDaRT1zrHe6Slu5lobJ5ca+JJrwxSXo291W2hsWRjY9aEVMqAMLNG4jGDzFS3Rl+hPBqAJ6q1bKzG5374MfbxQQ2nK0WwpWyoGcJBuJrPWwqQYNwcXqV8FpWl5fGvaSqAzRMd2GWXSXnIpDWCSooXz2qdGZSTbHRwaiNqiWr5jOrcCDwP8xLtEdgCqZvqpMm3jCUJ2eKC1uebLdEqd24kv+U1svNuua4siOVIjznp4dKmILMZMSxDypaxvTDzwS7TaiQoSkUZyy8x0qMY04h7ZYsyw72adcIJ8dblj4qxoLQnITEHnguWFDZUd+LogKzisENXEZoBp9lObzFJOURSslVwk+qkdAIPTlosiwDja0MFEnL0E7qC0AcUpTUA8Z5k5uPDqxgFw82rk4hqu5UJDdsdETY117/DCAl1hnuwGbuUBEY1k8QQPSRSnhGNtBFv0GIaQiItc6jsHAKMtgnDScA9/Y1l4HEaezGEL0+NoVc+OyQw2+NYJnM1x5a3HWapbQkDGmQsl8pyAawTMMl7sggt0wOqBLofbQ2i+mLgE8VWygXPLv6XYKyRWr1lFBmYBcNwjRFz6CKkWSdaTH7MSo5ByQXm614d9iHLhRukg2oMnmPMC8jcVTAm5xlv4VfoJR71XSBxpkaXx3Rz3M6B0NJVWIpSGLSyJHMd9vprAnhW4iryM4oTHeE4W+BpCc+aDiOkdLxXIp5yKXpxo8aaQ8QeJWD2KIpEJmyadXGo3upOuUumwVW7+FzpMwk8SnOm6oLeDtLocSADgQ2hOwWIjbugreu32skOszTwiDAQSBRSDJM/aQwtRcWbNsUCjxwl2UgSMg2PaXFAMlZFcFhMWuMReJXQMsGmR2UFCZb/dT/kwGbgJx/HxYfBAG0tmLrjFv8mqu6edpP6OPSjOjqhjfIthFw6AXXPYhpjIJbmK5GLJAzlhJPZSK+LtFgAP3icpgwiOXcRqMXRNrjMCGwrIQwwyJMR2unT7nFMEDo7AWCQUDSgHDrJGWEst9BAxofBT2wGVmpc/PNpd6ELoRm7eE85TTPIh3xOCBgcqK7wM59LUU7MoSiacChqtIPU/pGsjl6Upr1d7sZlO+XKJD2yRoz5GUqqUPrBo2vWuGcvkGXGIJftBvjvHjm18xlDmEHz+38Byn4Z676oy/0AAAAASUVORK5CYII=;" vertex="1" parent="1">
          <mxGeometry x="565.89" y="812" width="105.22" height="94" as="geometry" />
        </mxCell>
        <mxCell id="yAyFMgW1h0PYPkcusyNA-38" value="PR Approved" style="text;html=1;strokeColor=none;fillColor=none;align=center;verticalAlign=middle;whiteSpace=wrap;rounded=0;fontSize=20;fontFamily=Architects Daughter;" vertex="1" parent="1">
          <mxGeometry x="427" y="638" width="131" height="30" as="geometry" />
        </mxCell>
        <mxCell id="yAyFMgW1h0PYPkcusyNA-41" value="Platform Teams" style="text;html=1;strokeColor=none;fillColor=none;align=center;verticalAlign=middle;whiteSpace=wrap;rounded=0;fontSize=20;fontFamily=Architects Daughter;" vertex="1" parent="1">
          <mxGeometry x="554.22" y="930" width="111" height="30" as="geometry" />
        </mxCell>
        <mxCell id="yAyFMgW1h0PYPkcusyNA-43" value="Approves PR" style="text;html=1;strokeColor=none;fillColor=none;align=center;verticalAlign=middle;whiteSpace=wrap;rounded=0;fontSize=20;fontFamily=Architects Daughter;" vertex="1" parent="1">
          <mxGeometry x="629" y="742" width="131" height="30" as="geometry" />
        </mxCell>
        <mxCell id="yAyFMgW1h0PYPkcusyNA-45" value="Evolves platform" style="text;html=1;strokeColor=none;fillColor=none;align=center;verticalAlign=middle;whiteSpace=wrap;rounded=0;fontSize=20;fontFamily=Architects Daughter;" vertex="1" parent="1">
          <mxGeometry x="412" y="752" width="131" height="30" as="geometry" />
        </mxCell>
        <mxCell id="yAyFMgW1h0PYPkcusyNA-46" value="&lt;font style=&quot;font-size: 24px;&quot;&gt;PLATFORM&lt;/font&gt;" style="text;html=1;strokeColor=none;fillColor=none;align=center;verticalAlign=middle;whiteSpace=wrap;rounded=0;fontSize=20;fontFamily=Architects Daughter;fontStyle=1" vertex="1" parent="1">
          <mxGeometry x="-170" y="356" width="60" height="30" as="geometry" />
        </mxCell>
      </root>
    </mxGraphModel>
  </diagram>
</mxfile>
